<svg preserveAspectRatio="xMidYMid meet" data-bbox="45.175 27.575 109.45 144.775" viewBox="45.175 27.575 109.45 144.775" height="200" width="200" xmlns="http://www.w3.org/2000/svg" data-type="shape" role="presentation" aria-hidden="true" aria-label="">
    <g>
        <path d="M64.4 69.2 67 92.6l-5.3.4c-7.3.6-13.3 6.1-14.5 13.4-2.7 16.8-2.7 33.8 0 50.6 1.2 7.3 7.2 12.8 14.5 13.4l11.3.9c17.9 1.4 35.9 1.4 53.8 0l11.3-.9c7.3-.6 13.3-6.1 14.5-13.4 2.7-16.8 2.7-33.8 0-50.6-1.2-7.3-7.2-12.8-14.5-13.4l-5.3-.4 2.6-23.4c.3-2.8.3-5.5 0-8.3l-.2-1.6c-1.8-16.5-14.8-29.5-31.3-31.5-2.8-.3-5.6-.3-8.3 0-16.5 1.9-29.4 15-31.3 31.5l-.2 1.6c0 2.8 0 5.5.3 8.3zm38.4-30c-1.9-.2-3.8-.2-5.7 0-11.2 1.3-20 10.2-21.3 21.4l-.2 1.6c-.2 1.9-.2 3.9 0 5.8l2.6 23.8c14.4-.9 28.9-.9 43.3 0l2.6-23.8c.2-1.9.2-3.9 0-5.8l-.2-1.6c-1-11.2-9.9-20.1-21.1-21.4zm-2.8 81.1c-6.3 0-11.4 5.1-11.4 11.4 0 6.3 5.1 11.4 11.4 11.4 6.3 0 11.4-5.1 11.4-11.4 0-6.3-5.1-11.4-11.4-11.4z" fill-rule="evenodd" clip-rule="evenodd"></path>
    </g>
</svg>