<svg preserveAspectRatio="none" data-bbox="30.408 36.4 139.185 127.378" viewBox="30.408 36.4 139.185 127.378" height="200" width="200" xmlns="http://www.w3.org/2000/svg" data-type="shape" role="presentation" aria-hidden="true" aria-label="">
    <g>
        <path d="M105.8 39.7c-2.6-4.4-9-4.4-11.6 0L76.1 71c-1.3 2.2-3.5 3.7-6 4.1l-34 5.1c-5.7.9-7.7 8.1-3.3 11.8l25.3 21c2.3 1.9 3.4 5 2.9 8l-6.6 34.8c-1 5.5 4.7 9.8 9.7 7.2l32-16.8c2.4-1.3 5.3-1.3 7.8 0l32 16.8c5 2.6 10.7-1.7 9.7-7.2L139 121c-.6-3 .5-6.1 2.9-8l25.3-21c4.4-3.7 2.4-10.9-3.3-11.8l-34-5.1c-2.5-.4-4.7-1.9-6-4.1l-18.1-31.3z"></path>
    </g>
</svg>
