<svg preserveAspectRatio="xMidYMid meet" data-bbox="0 0 191 40" xmlns="http://www.w3.org/2000/svg" viewBox="0 0 191 40" height="40" width="191" data-type="color" role="img" aria-label="Fedora Prize">
    <g>
        <path d="M149.663 24.79c-2.146 0-3.338 1.829-3.338 3.946 0 2.118 1.192 3.947 3.338 3.947 2.145 0 3.337-1.829 3.337-3.947 0-2.07-1.144-3.947-3.337-3.947Zm33.136 10.06-1.048-2.889h-4.435l-1.048 2.888h-2.337l4.339-11.744h2.527l4.339 11.744h-2.337Zm-15.447-.049-2.86-4.284h-1.813v4.284h-2.145V23.008h4.672c2.384 0 4.1 1.3 4.1 3.61 0 1.926-1.239 3.033-2.48 3.514l3.195 4.67h-2.67Zm-17.69.048c-3.432 0-5.625-2.888-5.625-6.113 0-3.225 2.24-6.113 5.626-6.113 3.433 0 5.626 2.888 5.626 6.113.047 3.274-2.193 6.113-5.626 6.113Zm-16.21-.24h-4.339V22.863h4.339c4.1 0 6.008 2.696 6.008 5.872 0 3.225-2.003 5.872-6.008 5.872Zm-10.49 0h-8.105V22.863h7.772v2.262h-5.626v2.455h5.101v2.263h-5.101v2.55h5.96v2.214Zm-15.4-9.53h-5.96v2.984h5.436v2.262h-5.435v4.283h-2.146V22.864h8.058v2.214h.047ZM26.413 0v13.333H13.206v13.333H0V40h191V0H26.413Zm151.714 29.747h2.813l-1.383-3.754-1.43 3.754Zm-13.016-4.476h-2.48v2.984h2.384c1.287 0 1.955-.53 1.955-1.589 0-.963-.62-1.395-1.86-1.395Zm-31.754-.145h-2.098v7.22h2.098c2.574 0 3.814-1.588 3.814-3.61 0-2.166-1.43-3.61-3.814-3.61Z" fill="#FFFFFF" fill-rule="evenodd" data-color="1"></path>
    </g>
</svg>