<svg preserveAspectRatio="xMidYMid meet" data-bbox="0.04 0 519.29 267.01" viewBox="0.04 0 519.29 267.01" xmlns="http://www.w3.org/2000/svg" data-type="color" role="img" aria-label="Irish Natinal Opera">
    <g>
        <path d="M259 218.11c0 15-4.62 22.63-14.65 22.63s-14.87-7.63-14.69-22.63c0-15 4.62-22.63 14.64-22.63s14.7 7.63 14.7 22.63Zm12.25 0c0-20.94-9.41-32.92-26.9-32.92s-26.94 11.92-26.94 32.92 9.41 32.93 26.89 32.93 26.9-12 26.9-32.93Zm7.42 48.9h11v-21.17h.18c2.21 2.93 7.45 5.15 11.18 5.15 11.89 0 18.46-11.36 18.46-22.72 0-14.38-6.21-25.2-18.46-25.2-5 0-8.61 2-11.81 5.14v-4.26h-10.6v63Zm11-50.94c2.31-1.77 3.82-4.08 8.52-4.08 6.57 0 10.29 5.32 10.29 15.09s-3.76 15.03-10.33 15.03c-3.55 0-6.3-1.86-8.52-3.9v-22.19Zm45 5.33c.18-6.39 3.55-10.12 8.88-10.12s8.7 3.73 8.87 10.12Zm27.87 7.45v-4.52c0-11.1-6.74-21.3-18.81-21.21-12.52 0-20.06 9.31-20.06 24s7.54 24 19.52 24c8.88 0 15.09-2.84 19.35-9.41l-8-5c-2.75 3.2-5.14 5.5-10.29 5.5s-9.41-3.72-9.59-13.31Zm17.7 21.26v-28c0-1.16 4.79-7.46 10.3-7.46a12.37 12.37 0 0 1 2 .09v-11.63c-6.57.17-10.3 3.28-13 8.78h-.18v-7.9h-10.12v46.12Zm52.42 0a20.46 20.46 0 0 1-.88-6.65V221.7c0-13.84-5.33-18.37-17.75-18.63-6.75-.18-14.38 3.55-17.22 8.43l7.1 5.41c2.13-2.93 5-5.68 10.12-5.68 3.9 0 6.74 1.95 6.74 5.5v3.91c-17.93 2.13-26.45 7.63-26.45 18.1 0 6.3 4.18 12.25 12.52 12.25 5.77 0 9.94-1.86 14.37-4.88l.71 4Zm-11.89-12.16c-2.31 2-6.65 4.88-10.12 4.88a5 5 0 0 1-5.32-5.41c0-6.48 8.08-8 15.44-9.41v9.94Z" fill="#ffffff" data-color="1"></path>
        <path d="M233.48 161.35v-45.61h.17l26.19 45.61h11.8V97.28H260.1v43.66h-.18l-25.2-43.66h-12.78v64.07Zm83.28 0a20.46 20.46 0 0 1-.89-6.65v-21.75c0-13.84-5.32-18.37-17.75-18.63-6.74-.18-14.38 3.55-17.22 8.43l7.1 5.41c2.13-2.93 5-5.68 10.12-5.68 3.91 0 6.75 1.95 6.75 5.5v3.91c-17.93 2.13-26.45 7.63-26.45 18.1 0 6.3 4.17 12.25 12.51 12.25 5.77 0 9.94-1.86 14.38-4.88l.71 4Zm-11.89-12.16c-2.31 2-6.66 4.89-10.12 4.89a5 5 0 0 1-5.33-5.42c0-6.48 8.08-8 15.45-9.41v9.94Zm15.38-34v8.92h6.39v27.51c0 6.57 3.19 10.65 11.36 10.65a72.71 72.71 0 0 0 8.69-.71v-9.05a24.37 24.37 0 0 1-5.06.89c-2.75 0-4-.71-4-3.2v-26.09h9.05v-8.88h-9.05V99.94h-11v15.26Zm44.18 0h-11v46.15h11V115.2Zm0-8.52V96.39h-11v10.29Zm36.13 31.6c0 10.29-2.93 15.09-9 15.09s-9-4.8-9-15.09 2.93-15.09 9-15.09 9 4.79 9 15.09Zm-29.11 0c0 14.64 7.55 24 20.06 24s20.06-9.32 20.06-24-7.55-24-20.06-24-20.06 9.32-20.06 24Zm57.63 23.07v-33.23a14 14 0 0 1 10.29-4.88c3.73 0 5.68 1.95 5.68 8.17v30h11v-31.64c0-9.41-4.44-15.44-13.67-15.44-5.41 0-10.12 3-14.2 5.85v-5h-10.11v46.15Zm70.73 0a20.46 20.46 0 0 1-.89-6.65v-21.74c0-13.84-5.32-18.37-17.75-18.63-6.74-.18-14.37 3.55-17.21 8.43l7.1 5.41c2.13-2.93 5-5.68 10.11-5.68 3.91 0 6.75 1.95 6.75 5.5v3.91c-17.93 2.13-26.45 7.63-26.45 18.1 0 6.3 4.17 12.25 12.51 12.25 5.77 0 9.94-1.86 14.38-4.88l.71 4Zm-11.89-12.16c-2.31 2-6.66 4.89-10.12 4.89a5 5 0 0 1-5.32-5.42c0-6.48 8.07-8 15.44-9.41v9.94Zm31.41 12.16V97.28h-11v64.07Z" fill="#ffffff" data-color="1"></path>
        <path d="M235.61 72.6V8.53h-12.25V72.6Zm21.57 0v-28c0-1.15 4.79-7.45 10.3-7.45a13.82 13.82 0 0 1 1.95.08V25.57c-6.57.18-10.3 3.28-13 8.78h-.18v-7.89h-10.07V72.6ZM286 26.46h-11V72.6h11V26.46Zm0-8.52V7.64h-11v10.3Zm39.23 14.64c-4-4.7-10.11-7-16.24-7-8 0-15.26 4.79-15.26 13.4 0 16.06 23.07 13.22 23.07 21.12 0 3.11-2.66 5.24-6.56 5.24-4.71 0-8.17-3.11-10.74-6.66l-7.37 5.5a20.32 20.32 0 0 0 17.48 9.32c9.68 0 17-4.26 17-13.84 0-16.86-23.08-13.49-23.08-21.39 0-2.75 1.95-4.53 6.21-4.53 3.47 0 6.39 2.49 8.61 4.88l6.92-6Zm18.89 40V39.32a14 14 0 0 1 10.29-4.88c3.73 0 5.68 2 5.68 8.17v30h11v-31.6c0-9.41-4.44-15.44-13.67-15.44-5.41 0-9.94 3-13.31 5.86V8.53h-11V72.6Z" fill="#ffffff" data-color="1"></path>
        <path d="M173 86.48a86.48 86.48 0 1 0-86.47 86.48A86.47 86.47 0 0 0 173 86.48Zm-40.3 0a46.17 46.17 0 1 1-46.17-46.17 46.18 46.18 0 0 1 46.17 46.17Z" fill="#ffffff" data-color="1"></path>
    </g>
</svg>