<svg preserveAspectRatio="xMidYMid meet" data-bbox="0 0.005 93.34 123.705" viewBox="0 0.005 93.34 123.705" xmlns="http://www.w3.org/2000/svg" data-type="color" role="presentation" aria-hidden="true" aria-label="">
    <g>
        <path d="M18.05 111.67h-2.62v-10.78c0-5.12-2.58-7.54-6.4-7.54s-6.4 2.42-6.4 7.54v10.78H0v-10.78C0 94 3.77 90.85 9.02 90.85s9.02 3.16 9.02 10.04v10.78Z" fill="#ffffff" data-color="1"></path>
        <path d="M38.97 91.17v10.78c0 6.89-3.77 10.04-9.02 10.04s-9.02-3.16-9.02-10.04V91.17h2.62v10.78c0 5.12 2.58 7.54 6.4 7.54s6.4-2.42 6.4-7.54V91.17h2.62Z" fill="#ffffff" data-color="1"></path>
        <path d="m70.96 91.17-7.18 20.5h-2.62l-5.58-16.65L50 111.67h-2.62l-7.18-20.5h2.67l5.82 17.06 5.54-17.06h2.71l5.54 17.06 5.82-17.06h2.67Z" fill="#ffffff" data-color="1"></path>
        <path d="M71.17 101.42c0-5.86 4.76-10.58 10.58-10.58s10.54 4.71 10.54 10.58v10.25h-2.62v-4.39c-1.35 2.71-4.43 4.71-7.92 4.71-5.82 0-10.58-4.71-10.58-10.58Zm18.54 0c0-4.51-3.4-8.08-7.92-8.08s-8 3.57-8 8.08 3.57 8.08 8 8.08 7.92-3.57 7.92-8.08Z" fill="#ffffff" data-color="1"></path>
        <path d="M7.93 118.99c0 2.68-1.81 4.55-4.84 4.55H.26v-9.1h2.83c3.03 0 4.84 1.87 4.84 4.55Zm-1.77 0c0-2.03-1.42-2.91-3.07-2.91H2.02v5.82h1.07c1.65 0 3.07-.88 3.07-2.91Z" fill="#ffffff" data-color="1"></path>
        <path d="M11.24 114.44v9.1H9.49v-9.1h1.75Z" fill="#ffffff" data-color="1"></path>
        <path d="M21.61 118.39v5.15h-.95l-.23-1.3c-.61.88-1.57 1.47-2.99 1.47-2.7 0-4.63-2.05-4.63-4.72s1.92-4.71 4.63-4.71c1.51 0 2.78.64 3.6 1.68l-1.46.97c-.48-.58-1.2-.97-2.14-.97-1.89 0-2.86 1.52-2.86 3.03s.97 3.03 2.86 3.03c1.59 0 2.44-.92 2.7-2.09h-2.59v-1.53h4.06Z" fill="#ffffff" data-color="1"></path>
        <path d="M25.12 114.44v9.1h-1.75v-9.1h1.75Z" fill="#ffffff" data-color="1"></path>
        <path d="M32.75 116.08h-2.18v7.46H28.8v-7.46h-2.18v-1.64h6.14v1.64Z" fill="#ffffff" data-color="1"></path>
        <path d="M38.91 121.73h-3.74l-.61 1.81h-1.87l3.28-9.1h2.16l3.28 9.1h-1.87l-.61-1.81Zm-.53-1.57-1.34-3.94-1.34 3.94h2.68Z" fill="#ffffff" data-color="1"></path>
        <path d="M47.89 121.9v1.64h-5.27v-9.1h1.75v7.46h3.51Z" fill="#ffffff" data-color="1"></path>
        <path d="M63.52 114.44v9.1h-1.77v-6.03l-2.72 4.41h-.58l-2.73-4.41v6.03h-1.75v-9.1h1.87l2.9 4.68 2.9-4.68h1.88Z" fill="#ffffff" data-color="1"></path>
        <path d="M70.77 121.9v1.64H65.4v-9.1h5.25v1.64h-3.5v2.05h3.2v1.64h-3.2v2.13h3.61Z" fill="#ffffff" data-color="1"></path>
        <path d="M80.06 118.99c0 2.68-1.81 4.55-4.84 4.55h-2.83v-9.1h2.83c3.03 0 4.84 1.87 4.84 4.55Zm-1.77 0c0-2.03-1.42-2.91-3.07-2.91h-1.07v5.82h1.07c1.65 0 3.07-.88 3.07-2.91Z" fill="#ffffff" data-color="1"></path>
        <path d="M83.38 114.44v9.1h-1.76v-9.1h1.76Z" fill="#ffffff" data-color="1"></path>
        <path d="M90.84 121.73H87.1l-.61 1.81h-1.87l3.28-9.1h2.16l3.28 9.1h-1.87l-.61-1.81Zm-.53-1.57-1.34-3.94-1.34 3.94h2.68Z" fill="#ffffff" data-color="1"></path>
        <path d="M5.07 55.15a35.273 35.273 0 0 0 11.76 14.03l-.04-58C3 20.88-2.3 39.34 5.07 55.15Z" fill="#ffffff" data-color="1"></path>
        <path d="M30.58 73.27V75c7.07 1.35 14.6.58 21.61-2.69a35.27 35.27 0 0 0 16.1-15.08l-1.13-1.01-36.57 17.05Z" fill="#ffffff" data-color="1"></path>
        <path d="M82.36 19.11C79.12 12.17 74.5 6.33 68.97 1.75 65.24-1.34 59.6-.19 57.39 4.13l-2.67 5.22c-7.48-4.23-16.4-5.72-25.07-3.82l27.63 23.86-13.39 6.24-7.5-6.62c-2.45-2.17-6.31-.41-6.29 2.87l.16 20.87c.02 2.76 2.89 4.57 5.38 3.4l20.61-9.61-.93-.82 9.11-4.25c2.7-1.26 5.89-.82 8.15 1.13a35.617 35.617 0 0 1-4.29 14.61l3.61 3.21c4.03 3.58 10.35 1.91 12.18-3.16 4.34-12.01 4.11-25.67-1.71-38.16Z" fill="#ffffff" data-color="1"></path>
    </g>
</svg>