<svg preserveAspectRatio="xMidYMid meet" data-bbox="0 0 827.5 273.52" viewBox="0 0 827.5 273.52" xmlns="http://www.w3.org/2000/svg" data-type="color" role="presentation" aria-hidden="true" aria-label="">
    <g>
        <path fill="#ffffff" d="M827.5 87.91v1.23H0v-1.23h827.5z" data-color="1"></path>
        <path fill="#ffffff" d="M827.5 87.91v1.23H0v-1.23h827.5z" data-color="1"></path>
        <path fill="#ffffff" d="M827.5 117.87v1.23H0v-1.23h827.5z" data-color="1"></path>
        <path fill="#ffffff" d="M827.5 117.87v1.23H0v-1.23h827.5z" data-color="1"></path>
        <path fill="#ffffff" d="M827.5 147.84v1.23H0v-1.23h827.5z" data-color="1"></path>
        <path fill="#ffffff" d="M827.5 147.84v1.23H0v-1.23h827.5z" data-color="1"></path>
        <path fill="#ffffff" d="M827.5 177.79v1.23H0v-1.23h827.5z" data-color="1"></path>
        <path fill="#ffffff" d="M827.5 177.79v1.23H0v-1.23h827.5z" data-color="1"></path>
        <path fill="#ffffff" d="M827.5 207.75v1.23H0v-1.23h827.5z" data-color="1"></path>
        <path fill="#ffffff" d="M827.5 207.75v1.23H0v-1.23h827.5z" data-color="1"></path>
        <path d="M129.76 44.88c0 12.51-4.37 22.95-13.12 31.3-8.74 8.35-19.66 12.53-32.75 12.53s-24.02-4.18-32.76-12.53c-8.75-8.36-13.11-18.79-13.11-31.3s4.35-23.18 13.06-31.53C59.78 4.99 70.72.82 83.89.82S108 4.99 116.71 13.35c8.7 8.36 13.05 18.87 13.05 31.53m-17.45.06c0-11.84-2.54-21.39-7.62-28.65C99.61 9.03 92.67 5.4 83.89 5.4s-15.71 3.55-20.8 10.66c-5.08 7.1-7.62 16.73-7.62 28.88s2.52 21.43 7.57 28.54c5.05 7.11 12 10.66 20.86 10.66s15.81-3.59 20.85-10.77c5.05-7.18 7.57-16.66 7.57-28.42" fill="#ffffff" data-color="1"></path>
        <path d="M163.11.82v13.96c5.33-5.11 10.17-8.71 14.53-10.81C182 1.87 186.88.82 192.28.82c10.88 0 19.9 4.1 27.08 12.3 7.18 8.2 10.76 18.53 10.76 30.96s-3.96 23.46-11.86 31.93c-7.91 8.47-17.84 12.7-29.8 12.7-8.26 0-16.71-3.28-25.35-9.84v61.4c0 5.64.98 9.36 2.95 11.16 1.96 1.79 5.64 2.69 11.04 2.69v3.89h-44.83v-3.89c5.78 0 9.67-.81 11.67-2.4 2-1.61 3-4.66 3-9.16V20.17c0-5.57-.85-9.12-2.54-10.65-1.7-1.53-5.74-2.29-12.13-2.29V3.34l26.8-2.52h4.05Zm0 20.14v51.96c6.56 6.87 14.29 10.3 23.16 10.3 7.49 0 13.76-3.47 18.82-10.41 5.06-6.94 7.59-15.57 7.59-25.87 0-11.14-2.53-20.33-7.59-27.58-5.06-7.25-11.48-10.88-19.28-10.88s-15.44 4.16-22.7 12.48" fill="#ffffff" data-color="1"></path>
        <path d="M322.68 64.79v6.07c-5.08 6.41-10.26 10.99-15.54 13.73-5.28 2.75-11.61 4.12-19 4.12-13.1 0-23.9-4.06-32.41-12.19-8.52-8.13-12.77-18.44-12.77-30.96s4.06-23.2 12.19-31.81C263.27 5.13 273.23.82 285.01.82c9.71 0 18.18 3.24 25.42 9.73 7.24 6.48 10.86 14.23 10.86 23.23v1.71H259.7v1.15c0 9.15 1.4 17.11 4.22 23.86 2.81 6.76 6.91 12.04 12.31 15.85 5.39 3.81 11.01 5.72 16.87 5.72 5.47 0 10.15-1.12 14.04-3.38 3.89-2.25 9.07-6.89 15.54-13.9m-62.97-33.3h45.64v-1.6c0-7.4-2.14-13.27-6.41-17.62-4.27-4.35-9.61-6.53-16-6.53-6.78 0-12.23 2.29-16.35 6.87-4.12 4.58-6.41 10.87-6.88 18.88" fill="#ffffff" data-color="1"></path>
        <path d="M365.64 0v17.96c7.7-6.64 13.69-11.29 17.97-13.96 4.27-2.67 7.83-4 10.68-4 5.32 0 10.44 2.17 15.37 6.52l-6.36 14.77c-8.93-4.88-15.56-7.32-19.87-7.32-4.78 0-10.71 3.36-17.79 10.07v45.64c0 4.58.96 8.43 2.89 10.04 1.92 1.61 5.19 4.56 10.66 4.56v3.9h-44.25v-3.9c5.85 0 10.11-3.07 11.93-4.91 1.81-1.84 2.71-6.99 2.71-13.95V20.07c0-5.74-.98-9.45-2.95-11.14-1.96-1.68-6.76-2.52-14.38-2.52V2.52L361.6 0h4.05Z" fill="#ffffff" data-color="1"></path>
        <path d="M443.05 88.71c-6.55 0-12.17-2.16-16.87-6.46-4.7-4.31-7.05-9.52-7.05-15.62s2.02-10.58 6.07-14.36c4.04-3.78 12.27-7.38 24.66-10.82 7.79-2.14 13.02-3.96 15.72-5.49v-6.19c0-6.02-1.7-10.89-5.08-14.59-3.39-3.7-7.93-5.55-13.63-5.55-5.16 0-9.74 1.6-13.75 4.81-4.01 3.2-6.82 7.55-8.44 13.04l-4.27-1.15c1.7-7.7 5.38-13.88 11.04-18.54 5.66-4.65 12.31-6.98 19.93-6.98 9.01 0 16.31 2.69 21.89 8.07 5.58 5.38 8.38 12.84 8.38 22.37v35.59c0 5.04.33 8.45.98 10.24.65 1.79 1.91 2.69 3.75 2.69 1.23 0 2.23-.52 3-1.54.77-1.04 1.66-3.19 2.66-6.47h4.04c-.38 5.19-2.02 9.31-4.91 12.36-2.89 3.05-6.69 4.58-11.38 4.58-6.86 0-11.6-3.93-14.21-11.79-4.16 4.51-7.86 7.59-11.09 9.27-3.24 1.68-7.05 2.52-11.44 2.52m22.53-19.45V41.09c-2.39.99-5.86 2.25-10.4 3.78-8.39 2.83-13.77 5.63-16.11 8.41-2.35 2.79-3.53 6.54-3.53 11.27 0 4.12 1.25 7.69 3.76 10.7 2.5 3.01 5.48 4.52 8.96 4.52 3.15 0 6.47-1.01 9.93-3.03 3.47-2.02 5.93-4.52 7.4-7.49" fill="#ffffff" data-color="1"></path>
        <path d="M282.81 183.19v6.34c-5.32 6.7-10.73 11.49-16.24 14.36-5.52 2.87-12.14 4.3-19.87 4.3-13.7 0-24.98-4.24-33.88-12.74-8.9-8.49-13.35-19.27-13.35-32.36s4.25-24.25 12.74-33.26c8.49-9.01 18.9-13.52 31.22-13.52 10.15 0 19 3.39 26.57 10.17 7.57 6.78 11.35 14.88 11.35 24.29v1.8h-64.37v1.19c0 9.58 1.47 17.89 4.41 24.94 2.94 7.06 7.23 12.59 12.86 16.57 5.64 3.98 11.52 5.98 17.64 5.98 5.72 0 10.6-1.17 14.68-3.53 4.07-2.35 9.48-7.2 16.24-14.53m-65.82-34.82h47.71v-1.67c0-7.74-2.23-13.88-6.71-18.42-4.47-4.55-10.04-6.82-16.73-6.82-7.09 0-12.79 2.39-17.09 7.18-4.31 4.78-6.7 11.37-7.19 19.74" fill="#ffffff" data-color="1"></path>
        <path d="M378.02 116.32h4.11v72.83c0 4.8 1.02 9.04 3.08 10.71 2.05 1.68 6.06 2.51 12.02 2.51v4.08l-31.89 1.67V191.2h-.48c-8.78 11.33-19.01 16.99-30.68 16.99-8.37 0-15.24-2.77-20.59-8.32-5.36-5.55-8.03-12.52-8.03-20.91v-44.44c0-4.47-1.13-7.51-3.38-9.1-2.26-1.6-6.32-2.4-12.2-2.4v-4.06l28.14-2.63h4.23v61.97c0 6.06 1.79 10.85 5.38 14.35 3.58 3.52 8.39 5.27 14.43 5.27 8.37 0 16.1-4.74 23.19-14.23v-46.87c0-5.99-.93-9.75-2.78-11.27-1.85-1.52-6.6-2.35-14.25-2.52v-4.06l29.71-2.63Z" fill="#ffffff" data-color="1"></path>
        <path d="M441.76 116.32v18.78c8.05-6.94 14.31-11.8 18.78-14.59 4.47-2.8 8.19-4.19 11.17-4.19 5.55 0 10.91 2.27 16.06 6.81l-6.64 15.43c-9.34-5.1-16.27-7.65-20.78-7.65-4.99 0-11.19 3.52-18.6 10.53v50.16c0 4.8 1.01 8.04 3.02 9.71 2.01 1.68 5.87 2.51 11.6 2.51v4.08h-46.26v-4.08c6.12 0 10.12-.95 12.02-2.87 1.89-1.91 2.84-8.98 2.84-16.25v-47.41c0-6-1.03-9.88-3.08-11.64-2.06-1.76-7.07-2.64-15.04-2.64v-4.06l30.68-2.63h4.23Z" fill="#ffffff" data-color="1"></path>
        <path d="M586.09 162.38c0 13.07-4.57 23.99-13.71 32.71-9.14 8.73-20.55 13.1-34.24 13.1s-25.1-4.37-34.24-13.1-13.71-19.64-13.71-32.71 4.55-24.23 13.65-32.96c9.1-8.73 20.53-13.09 34.3-13.09s25.2 4.37 34.3 13.09c9.1 8.74 13.65 19.73 13.65 32.96m-18.24.05c0-12.38-2.66-22.36-7.97-29.95-5.32-7.59-12.56-11.38-21.74-11.38s-16.43 3.71-21.75 11.14c-5.31 7.43-7.97 17.49-7.97 30.18s2.64 22.41 7.91 29.84 12.54 11.14 21.8 11.14 16.53-3.75 21.8-11.26c5.27-7.5 7.91-17.41 7.91-29.71" fill="#ffffff" data-color="1"></path>
        <path d="M622.79 116.32v14.59c5.57-5.34 10.63-9.11 15.19-11.3 4.56-2.19 9.66-3.29 15.3-3.29 11.38 0 20.81 4.29 28.31 12.86 7.51 8.58 11.26 19.37 11.26 32.36s-4.14 24.53-12.4 33.38c-8.27 8.86-18.65 13.28-31.15 13.28-8.63 0-17.47-3.43-26.5-10.29v57.07c0 5.9 1.03 9.78 3.08 11.66 2.06 1.87 5.9 2.81 11.54 2.81v4.07h-46.87v-4.07c6.04 0 10.11-.84 12.2-2.52 2.09-1.67 3.14-4.86 3.14-9.58V136.54c0-5.82-.89-9.54-2.66-11.13-1.78-1.6-6-2.4-12.69-2.4v-4.06l28.02-2.63h4.23Zm0 21.05v54.31c6.86 7.18 14.94 10.76 24.22 10.76 7.83 0 14.38-3.62 19.67-10.88 5.28-7.26 7.92-16.27 7.92-27.04 0-11.64-2.64-21.25-7.92-28.83-5.29-7.57-12.01-11.37-20.16-11.37s-16.14 4.36-23.73 13.04" fill="#ffffff" data-color="1"></path>
        <path d="M734.04 208.19c-6.85 0-12.72-2.26-17.63-6.76-4.92-4.5-7.37-9.95-7.37-16.33s2.11-11.07 6.34-15.01c4.23-3.95 12.82-7.71 25.78-11.31 8.14-2.24 13.61-4.14 16.43-5.74v-6.47c0-6.3-1.78-11.38-5.31-15.25-3.55-3.87-8.29-5.81-14.25-5.81-5.4 0-10.19 1.68-14.37 5.02-4.19 3.35-7.12 7.9-8.82 13.64l-4.47-1.19c1.77-8.06 5.62-14.52 11.54-19.38 5.92-4.87 12.87-7.3 20.84-7.3 9.42 0 17.05 2.8 22.88 8.43 5.84 5.62 8.76 13.42 8.76 23.39v37.2c0 5.26.34 8.83 1.03 10.71.68 1.88 2 2.81 3.93 2.81 1.29 0 2.33-.54 3.14-1.61.8-1.08 1.73-3.33 2.77-6.77h4.23c-.4 5.42-2.12 9.73-5.13 12.92-3.02 3.19-6.99 4.79-11.9 4.79-7.17 0-12.12-4.1-14.85-12.32-4.35 4.71-8.21 7.94-11.6 9.69-3.38 1.75-7.37 2.63-11.96 2.63m23.55-20.33v-29.43c-2.5 1.04-6.13 2.36-10.87 3.95-8.78 2.95-14.39 5.88-16.85 8.79-2.46 2.91-3.68 6.84-3.68 11.78 0 4.3 1.31 8.04 3.93 11.18 2.61 3.15 5.74 4.73 9.36 4.73 3.3 0 6.76-1.05 10.38-3.17 3.63-2.11 6.21-4.73 7.74-7.84" fill="#ffffff" data-color="1"></path>
    </g>
</svg>